<svg xmlns="http://www.w3.org/2000/svg" xml:space="preserve" width="40" viewBox="0 0 1024 1024" fill="none">
  <path d="M674 1025H1V1h1024v1024H674M177.11 666.244c.558 1.727.94 3.536 1.699 5.169 22.784 48.977 55.122 90.63 96.665 125.06 32.571 26.995 69.43 46.245 109.472 59.701 28.273 9.501 57.303 15.504 86.945 17.333 20.868 1.288 41.983 1.183 62.829-.4 27.785-2.11 54.957-8.227 81.131-18.226 1.607-.614 4.072-.468 5.574.354 21.452 11.749 44.452 14.766 68.282 11.537 23.287-3.155 43.413-12.708 57.595-32.277 2.422-3.34 4.423-5.217 8.84-4.116 2.804.699 5.984.314 8.932-.067 19.947-2.575 35.088-13.14 46.246-29.315 10.22-14.815 15.256-30.977 9.595-49.142-.417-1.338.682-3.971 1.908-4.875 14.369-10.598 21.592-25.511 25.598-42.256 5.603-23.416 2.662-46.29-5.011-68.801-.716-2.1-1.23-4.554-.882-6.688 3.236-19.853 7.535-39.573 9.852-59.526 2.926-25.204 2.37-50.61-.987-75.779-3.775-28.312-11.353-55.71-21.201-82.545-15.237-41.522-38.992-77.548-69.718-109.043-26.235-26.892-56.015-49.102-89.473-66.425-57.834-29.943-118.896-46.14-184.321-45.185-30.661.447-60.647 5.138-90.403 12.026-8.4 1.945-16.841 4.736-25.334 5.02-13.329.444-26.62.176-39.71 3.324-30.797 7.406-58.408 20.522-79.587 44.857-13.277 15.256-21.023 32.794-19.342 53.453.349 4.288-.96 7.164-3.431 10.289-27.118 34.298-47.92 71.945-60.95 113.849-16.679 53.639-20.232 108.129-10.964 163.4 2.442 14.561 6.665 28.823 10.297 43.927 3.273 8.22 6.545 16.439 9.854 25.367z"/>
    <path fill="#FDFEFE" d="M167.03 640.173c-3.406-14.4-7.63-28.662-10.071-43.223-9.268-55.271-5.715-109.761 10.964-163.4 13.03-41.904 33.832-79.551 60.95-113.85 2.47-3.124 3.78-6 3.43-10.288-1.68-20.659 6.066-38.197 19.343-53.453 21.18-24.335 48.79-37.451 79.587-44.857 13.09-3.148 26.381-2.88 39.71-3.325 8.493-.283 16.934-3.074 25.334-5.019 29.756-6.888 59.742-11.58 90.403-12.026 65.425-.954 126.487 15.242 184.321 45.185 33.458 17.323 63.238 39.533 89.473 66.425 30.726 31.495 54.481 67.52 69.718 109.043 9.848 26.836 17.426 54.233 21.201 82.545 3.357 25.17 3.913 50.575.987 75.779-2.317 19.953-6.616 39.673-9.852 59.526-.348 2.134.166 4.588.882 6.688 7.673 22.511 10.614 45.385 5.011 68.801-4.006 16.745-11.23 31.658-25.598 42.256-1.226.904-2.325 3.537-1.908 4.875 5.661 18.165.624 34.327-9.595 49.142-11.158 16.175-26.299 26.74-46.246 29.315-2.948.381-6.128.766-8.931.067-4.418-1.101-6.42.775-8.84 4.116-14.183 19.569-34.31 29.122-57.596 32.277-23.83 3.229-46.83.212-68.282-11.537-1.502-.822-3.967-.968-5.574-.354-26.174 9.999-53.346 16.116-81.131 18.226-20.846 1.583-41.96 1.688-62.829.4-29.642-1.83-58.672-7.832-86.945-17.333-40.042-13.456-76.901-32.706-109.472-59.701-41.543-34.43-73.881-76.083-96.665-125.06-.76-1.633-1.141-3.442-1.26-5.618 27.836-.448 55.233-.448 82.433-.448.378 1.554.638 2.044.587 2.499-1.838 16.356 6.866 27.064 19.754 34.682a195.824 195.824 0 0 0 29.598 14.284c29.13 11.134 59.607 16.415 90.574 18.921 29.118 2.357 58.228 2.349 87.249-1.559 1.852-.25 3.666-.792 5.995-1.31-16.549-33.452-18.604-66.56-2.275-100.433-1.32 0-2.09-.065-2.845.009-47.53 4.626-94.831 3.049-141.779-5.811-22.608-4.267-44.97-9.745-65.313-21.027-7.142-3.96-13.653-9.059-21.22-14.155v48.726h-93.278m595.703-128.074 4.85 1.1c.217-.774.457-1.23.457-1.687-.002-35.148.22-70.298-.16-105.44-.154-14.294-10.966-26.767-24.998-29.186-7.634-1.316-15.571-.989-23.376-1.132-2.743-.05-4.503-.615-5.998-3.204-3.95-6.844-10.193-10.875-17.793-12.634-12.231-2.831-25.837 4.126-30.953 15.617-5.469 12.282-2.23 25.986 7.848 33.2 11.203 8.022 26.79 7.722 36.165-2.267 5.246-5.59 10.56-7.157 17.444-6.442 1.154.12 2.33.021 3.497.024 8.808.022 9.884.743 13.254 9.887V511.75c6.814 0 12.912 0 19.763.35m-499.985-42.788c-.655.453-1.881.904-1.882 1.358-.04 25.12.024 50.242-.145 76.198-.088 6.139 2.008 11.652 6.235 15.854 4.795 4.767 9.678 10.143 15.614 12.926 14.56 6.824 29.41 13.42 44.757 18.096 29.31 8.933 59.736 11.83 90.247 12.937 28.157 1.02 56.3.66 84.152-4.614 2.695-.51 4.504-1.077 5.059-4.267 5.412-31.111 23.334-53.906 48.397-71.729 14.432-10.263 30.378-16.588 48.404-16.053 4.282.127 6.973-1.43 9.854-4.385 2.941-3.016 4.032-6.034 3.892-10.134-.267-7.82-.045-15.657-.077-23.486-.004-1.04-.309-2.078-.56-3.663-3.899 3.513-7.103 6.86-10.757 9.61-11.846 8.907-25.376 14.483-39.352 18.992-29.805 9.617-60.486 14.426-91.675 16.351-48.469 2.992-96.601.857-143.942-10.684-24.848-6.057-49.089-13.888-68.221-33.307M528.81 721.268c4.326-.15 8.656-.465 12.975-.353 1.33.035 3.336.904 3.832 1.957 3.178 6.746 6.021 13.65 9.087 20.761-3.617 2.812-7.389 5.537-10.93 8.535-9.983 8.45-10.577 16.743-1.397 25.894 11.678 11.641 23.575 23.07 35.613 34.34 9.266 8.673 18.335 8.165 26.805-1.393 3.263-3.683 5.794-8.015 8.753-12.183l21.304 7.573c-.26 4.73-.737 9.365-.72 13.997.036 10.159 6.556 16.557 16.57 16.557 14.994 0 29.989-.016 44.984-.006 11.284.008 18.375-7.129 18.158-18.461-.067-3.493-.77-6.996-.58-10.462.086-1.563 1.28-3.79 2.6-4.44 6.703-3.298 13.611-6.178 20.348-9.161 3.234 3.138 6.431 6.267 9.656 9.367 7.491 7.203 16.724 7.04 23.766-.433 10.052-10.669 20.05-21.39 30.137-32.025 8.87-9.352 8.398-19.154-1.447-27.567-9.512-8.13-9.178-8.023-5.437-19.774 1.643-5.161 3.857-6.47 9.128-5.771 11.67 1.548 18.96-5.14 19.022-16.774.083-15.494.095-30.989.021-46.483-.013-2.63-.188-5.397-1.01-7.86-2.744-8.215-9.374-11.683-19.533-11.07-1.869.113-4.95-.68-5.55-1.956-3.09-6.578-5.552-13.45-8.287-20.353 4.4-3.287 9.023-6.283 13.11-9.887 9.287-8.19 9.568-16.049.776-24.77-11.588-11.495-23.362-22.807-35.225-34.02-7.411-7.005-15.909-6.66-22.84.874-3.206 3.486-5.838 7.5-8.679 11.208l-20.865-7.93c.22-4.34.433-8.645.656-12.95.618-11.894-7.088-20.153-18.91-20.16-14.328-.01-28.658-.046-42.985.118-11.113.127-17.545 6.931-17.358 18.044.065 3.83.548 7.68.253 11.475-.118 1.52-1.502 3.648-2.86 4.24-5.33 2.32-10.83 4.294-16.384 6.022-1.196.373-3.318-.388-4.258-1.358-3.452-3.564-6.255-7.803-9.913-11.112-6.49-5.87-16.354-5.554-22.68.53-12.124 11.662-24.202 23.377-36.078 35.292-8.96 8.99-8.425 17.21 1.345 25.555 3.619 3.09 7.495 5.879 11.127 8.705l-10.466 23.596c-4.06-.3-8.03-.708-12.009-.867-12.158-.486-19.757 5.687-20.13 17.727-.51 16.476-.415 32.994.124 49.47.351 10.723 5.758 16.2 16.381 17.742M377.565 233.987c-22.96 3.22-45.644 7.586-67.401 15.91-14.91 5.705-29.008 12.714-39.654 25.088-13.552 15.753-13.216 34.325 1.077 49.382 3.517 3.706 7.626 7.035 11.956 9.752 17.552 11.012 37.059 17.274 57.03 21.957 46.988 11.02 94.65 12.96 142.545 8.72 30.257-2.68 60.063-8.142 88.42-19.667 13.814-5.615 27.044-12.214 36.972-23.88 11.56-13.585 11.599-30.481.112-44.17-6.868-8.183-15.494-14.067-24.866-18.96-21.364-11.152-44.459-16.91-67.934-21.139-45.597-8.213-91.428-8.598-138.257-2.993m79.21 252.44c31.42-.894 62.316-5.46 92.716-13.364 19.279-5.013 37.885-11.608 53.733-24.244 9.36-7.464 14.586-16.585 14.266-29.204-.582-22.979-.18-45.982-.216-68.975-.002-1.165-.269-2.33-.457-3.86-3.157 2.979-5.603 5.708-8.457 7.908-13.492 10.402-28.952 16.993-44.959 22.272-36.25 11.953-73.75 16.147-111.687 16.951-42.282.898-84.276-1.686-125.305-12.93-23.792-6.521-46.553-15.252-64.498-33.232-.105-.106-.56.138-1.229.323 0 24.554.11 49.203-.067 73.85-.054 7.383 1.937 13.993 6.723 19.341 4.282 4.787 8.968 9.52 14.31 12.995 17.255 11.227 36.809 16.954 56.588 21.685 38.66 9.246 77.968 11.804 118.54 10.485z"/>
    <path fill="#153E4E" d="M167.143 640.525c30.685-.352 61.485-.352 93.163-.352v-48.726c7.568 5.096 14.08 10.194 21.22 14.155 20.344 11.282 42.706 16.76 65.314 21.027 46.948 8.86 94.25 10.437 141.779 5.81.755-.073 1.525-.008 2.845-.008-16.329 33.874-14.274 66.981 2.275 100.434-2.33.517-4.143 1.06-5.995 1.309-29.02 3.908-58.131 3.916-87.249 1.56-30.967-2.507-61.443-7.788-90.574-18.922a195.824 195.824 0 0 1-29.598-14.284c-12.888-7.618-21.592-18.326-19.754-34.682.051-.455-.21-.945-.587-2.499-27.2 0-54.597 0-82.451.094-3.73-8.125-7.002-16.344-10.388-24.916m279.073 55.456c7.97-5.298 10.328-14.165 5.704-21.45-4.357-6.864-14.11-8.934-21.07-4.473-6.236 3.997-8.556 12.017-5.444 18.824 3.46 7.569 11.12 10.394 20.81 7.1zm82.14 25.263c-10.168-1.519-15.575-6.995-15.926-17.718-.54-16.476-.633-32.994-.123-49.47.372-12.04 7.971-18.213 20.13-17.727 3.979.16 7.948.567 12.008.867l10.466-23.596c-3.632-2.826-7.508-5.614-11.127-8.705-9.77-8.344-10.306-16.565-1.345-25.555 11.876-11.915 23.954-23.63 36.079-35.292 6.325-6.084 16.19-6.4 22.679-.53 3.658 3.31 6.46 7.548 9.913 11.112.94.97 3.062 1.73 4.258 1.358 5.554-1.728 11.055-3.702 16.385-6.023 1.357-.59 2.74-2.72 2.859-4.239.295-3.795-.188-7.645-.253-11.475-.187-11.113 6.245-17.917 17.358-18.044 14.327-.164 28.657-.127 42.985-.118 11.822.007 19.528 8.266 18.91 20.16-.223 4.305-.436 8.61-.656 12.95l20.865 7.93c2.841-3.707 5.473-7.722 8.68-11.208 6.93-7.535 15.428-7.88 22.84-.874 11.862 11.213 23.636 22.525 35.224 34.02 8.792 8.721 8.51 16.58-.776 24.77-4.087 3.604-8.71 6.6-13.11 9.887 2.735 6.903 5.198 13.775 8.287 20.353.6 1.277 3.681 2.069 5.55 1.956 10.16-.613 16.79 2.855 19.533 11.07.822 2.463.997 5.23 1.01 7.86.074 15.494.062 30.99-.021 46.483-.063 11.635-7.352 18.322-19.022 16.774-5.27-.7-7.485.61-9.128 5.771-3.74 11.75-4.075 11.644 5.437 19.774 9.845 8.413 10.317 18.215 1.447 27.567-10.088 10.635-20.085 21.356-30.137 32.025-7.042 7.474-16.275 7.636-23.766.433-3.225-3.1-6.422-6.229-9.656-9.367-6.737 2.983-13.645 5.863-20.348 9.162-1.32.65-2.514 2.876-2.6 4.44-.19 3.465.513 6.968.58 10.46.217 11.333-6.874 18.47-18.158 18.462-14.995-.01-29.99.006-44.984.006-10.014 0-16.534-6.398-16.57-16.557-.017-4.632.46-9.267.72-13.997l-21.304-7.573c-2.959 4.168-5.49 8.5-8.753 12.183-8.47 9.558-17.54 10.066-26.805 1.392-12.038-11.269-23.935-22.698-35.613-34.34-9.18-9.15-8.586-17.443 1.397-25.893 3.541-2.998 7.313-5.723 10.93-8.535-3.066-7.112-5.91-14.015-9.087-20.761-.496-1.053-2.501-1.922-3.832-1.957-4.32-.112-8.65.203-13.43.329m94.363-5.489c1.04 1.08 2.065 2.175 3.12 3.24 18.397 18.585 40.468 23.444 64.705 15.152 24.421-8.356 38.219-26.229 40.881-52.168 3.75-36.52-24.099-67.741-61.086-67.66-25.274.055-44.242 12.093-55.213 34.697-11.218 23.114-8.595 45.574 7.593 66.739zM378.013 233.957c46.381-5.575 92.212-5.19 137.809 3.023 23.475 4.228 46.57 9.987 67.934 21.14 9.372 4.892 17.998 10.776 24.866 18.96 11.487 13.688 11.448 30.584-.112 44.168-9.928 11.667-23.158 18.266-36.973 23.88-28.356 11.526-58.162 16.988-88.419 19.668-47.895 4.24-95.557 2.3-142.545-8.72-19.971-4.683-39.478-10.945-57.03-21.957-4.33-2.717-8.439-6.046-11.956-9.752-14.293-15.057-14.63-33.629-1.077-49.382 10.646-12.374 24.744-19.383 39.654-25.087 21.757-8.325 44.442-12.692 67.849-15.94z"/>
    <path fill="#153E4E" d="M456.304 486.442c-40.1 1.305-79.409-1.253-118.068-10.5-19.78-4.73-39.333-10.457-56.588-21.684-5.342-3.475-10.028-8.208-14.31-12.995-4.786-5.348-6.777-11.958-6.723-19.34.178-24.648.067-49.297.067-73.85.67-.186 1.124-.43 1.229-.324 17.945 17.98 40.706 26.71 64.498 33.231 41.03 11.245 83.023 13.829 125.305 12.931 37.937-.804 75.438-4.998 111.687-16.951 16.007-5.279 31.467-11.87 44.959-22.272 2.854-2.2 5.3-4.93 8.457-7.908.188 1.53.455 2.695.457 3.86.036 22.993-.366 45.996.216 68.975.32 12.619-4.906 21.74-14.266 29.204-15.848 12.636-34.454 19.23-53.733 24.244-30.4 7.905-61.297 12.47-93.187 13.38m-29.584-55.066c-5.164 8.651-3.423 17.08 4.443 21.518 7.64 4.31 17.04 1.812 21.219-5.638 3.53-6.291 1.612-14.887-4.286-19.209-6.81-4.99-14.21-4.024-21.376 3.329z"/>
    <path fill="#163E4F" d="M263.01 469.983c18.87 18.747 43.11 26.578 67.958 32.635 47.341 11.54 95.473 13.676 143.942 10.684 31.19-1.925 61.87-6.734 91.675-16.35 13.976-4.51 27.506-10.086 39.352-18.994 3.654-2.748 6.858-6.096 10.756-9.609.252 1.585.557 2.623.56 3.663.033 7.829-.19 15.665.078 23.486.14 4.1-.95 7.118-3.892 10.134-2.88 2.954-5.572 4.512-9.854 4.385-18.026-.535-33.972 5.79-48.404 16.053-25.063 17.823-42.985 40.618-48.397 71.729-.555 3.19-2.364 3.757-5.059 4.267-27.852 5.273-55.995 5.635-84.152 4.614-30.511-1.106-60.936-4.004-90.247-12.937-15.346-4.677-30.196-11.272-44.757-18.096-5.936-2.783-10.82-8.159-15.614-12.926-4.227-4.202-6.323-9.715-5.864-16.6.55-2.708.882-4.67.886-6.632.04-20.9-.003-41.802.073-62.703.008-2.269.626-4.535.96-6.803m179.48 106.044c7.413-2.4 11.125-6.605 11.653-13.186.515-6.432-2.004-11.354-7.547-14.586-5.699-3.323-12.213-2.757-17.248 1.27-5.055 4.045-6.806 10.961-4.333 17.114 2.873 7.149 8.013 10.068 17.476 9.388z"/>
    <path fill="#173E4D" d="M743.074 409.003c-3.475-8.212-4.55-8.933-13.36-8.955-1.165-.003-2.342.095-3.496-.024-6.883-.715-12.198.852-17.444 6.442-9.375 9.99-24.962 10.289-36.165 2.268-10.078-7.215-13.317-20.92-7.848-33.201 5.116-11.49 18.722-18.448 30.953-15.617 7.6 1.76 13.842 5.79 17.793 12.634 1.495 2.589 3.255 3.153 5.998 3.204 7.805.143 15.742-.184 23.376 1.132 14.032 2.42 24.844 14.892 24.999 29.185.378 35.143.157 70.293.159 105.44 0 .457-.24.914-.457 1.689-1.662-.377-3.256-.74-5.397-1.617-4.088-.87-7.66-1.698-11.163-1.465-4.928.327-6.141-1.553-6.111-6.266.19-29.759.13-59.52.013-89.28-.007-1.859-1.205-3.713-1.85-5.569z"/>
    <path fill="#0A2F39" d="M743.021 409.47c.698 1.39 1.896 3.243 1.903 5.102.118 29.76.177 59.521-.013 89.28-.03 4.713 1.183 6.593 6.111 6.266 3.502-.233 7.075.594 10.786 1.29-5.927.34-12.025.34-18.84.34 0-33.945 0-67.879.053-102.279z"/>
    <path fill="#15313C" d="M262.879 469.647c-.203 2.604-.82 4.87-.829 7.139-.076 20.9-.033 41.802-.073 62.703-.004 1.962-.336 3.924-.776 6.214-.312-24.792-.375-49.913-.336-75.034 0-.454 1.227-.905 2.014-1.022z"/>
    <path fill="#F9FBFC" d="M445.87 696.142c-9.345 3.134-17.004.309-20.464-7.26-3.112-6.807-.792-14.827 5.444-18.824 6.96-4.461 16.713-2.39 21.07 4.473 4.624 7.285 2.266 16.152-6.05 21.61z"/>
    <path fill="#FDFEFE" d="M622.478 715.493c-15.947-20.903-18.57-43.363-7.352-66.477 10.971-22.604 29.94-34.642 55.213-34.697 36.987-.081 64.835 31.14 61.086 67.66-2.662 25.94-16.46 43.812-40.881 52.168-24.237 8.292-46.308 3.433-64.706-15.152-1.054-1.065-2.08-2.16-3.36-3.502z"/>
    <path fill="#F8FBFB" d="M426.943 431.078c6.943-7.054 14.342-8.02 21.153-3.03 5.898 4.322 7.816 12.918 4.286 19.21-4.18 7.45-13.58 9.947-21.22 5.637-7.865-4.438-9.606-12.867-4.22-21.817z"/>
    <path fill="#F9FBFB" d="M442.106 576.077c-9.078.63-14.218-2.289-17.091-9.438-2.473-6.153-.722-13.07 4.333-17.113 5.035-4.028 11.55-4.594 17.248-1.271 5.543 3.232 8.062 8.154 7.547 14.586-.528 6.581-4.24 10.787-12.037 13.236z"/>
</svg>